<svg id="Layer_1" data-name="Layer 1" xmlns="http://www.w3.org/2000/svg" xmlns:xlink="http://www.w3.org/1999/xlink" viewBox="0 0 1422.45 424.5"><defs><style>.cls-1{fill:none;}.cls-2{clip-path:url(#clip-path);}.cls-3{fill:#9bb897;}.cls-4{fill:#28373d;}</style><clipPath id="clip-path" transform="translate(-54.82 -41.84)"><rect class="cls-1" x="54.82" y="41.84" width="1422.45" height="424.5"/></clipPath></defs><title>outdoorCollectiveLogo</title><g class="cls-2"><path class="cls-3" d="M471.6,193.11a209.44,209.44,0,0,0-41.68-76.67,205,205,0,0,0-23.67-23.66A210.92,210.92,0,0,0,284.82,41.84V78.37a179.07,179.07,0,0,1,96.48,39.36,171.87,171.87,0,0,1,23.92,23.41,181.42,181.42,0,0,1,27.27,43.48,167.89,167.89,0,0,1,11.58,36,165,165,0,0,1,3.6,34v2.83a178.11,178.11,0,0,1-40.13,113.2l-56.86-56.86L327,290.1l-35.24-35.5-6.95-6.95L268.1,230.93l-16.72,16.72-6.95,6.95-35.5,35.24-23.67,23.67L128.4,370.37a179.52,179.52,0,0,1-40.13-113.2v-2.83a209.93,209.93,0,0,1,3.6-34,179.15,179.15,0,0,1,38.85-79.5,171.32,171.32,0,0,1,23.92-23.41,177.63,177.63,0,0,1,96.48-39.36V41.84A212.6,212.6,0,0,0,129.43,92.26a205.08,205.08,0,0,0-23.67,23.67,214.15,214.15,0,0,0-28.3,42.45,218.3,218.3,0,0,0-13.64,34,212.26,212.26,0,0,0-9,61.74v.52a211.36,211.36,0,0,0,51.45,138.15,205.88,205.88,0,0,0,23.67,23.67,208.52,208.52,0,0,0,42.71,28.3,194.31,194.31,0,0,0,34,13.38,199.62,199.62,0,0,0,44.77,8.23V436.49a133.91,133.91,0,0,1-20.07-3.09l36.79-36.79,36.79,36.79q-9.64,1.94-20.07,3.09v29.84a208.82,208.82,0,0,0,44.51-8.49,195.2,195.2,0,0,0,34-13.63,214.41,214.41,0,0,0,66.12-52A211.48,211.48,0,0,0,480.35,254.6v-.52a207,207,0,0,0-8.75-61M340.91,421.83,292,372.94,285.08,366l-16.72-16.73L251.63,366l-6.94,6.94L195.8,421.83a172,172,0,0,1-43.47-27.28L268.61,278.27,384.9,394.55a195.78,195.78,0,0,1-44,27.28" transform="translate(-54.82 -41.84)"/></g><g class="cls-2"><path class="cls-4" d="M587.37,186.16a42.69,42.69,0,0,1,2.83-15.69,36,36,0,0,1,8.23-12.09,38.46,38.46,0,0,1,12.35-7.72,49.21,49.21,0,0,1,31.39,0,35.47,35.47,0,0,1,20.58,19.81,38.72,38.72,0,0,1,2.83,15.69,42.7,42.7,0,0,1-2.83,15.7A36,36,0,0,1,654.52,214a38.53,38.53,0,0,1-12.35,7.72,49.21,49.21,0,0,1-31.39,0,35.47,35.47,0,0,1-20.58-19.81,43.73,43.73,0,0,1-2.83-15.7m16.72,0a26.91,26.91,0,0,0,1.55,9.27,20.29,20.29,0,0,0,4.63,7.46,23.8,23.8,0,0,0,7.2,4.89,24.74,24.74,0,0,0,18.53,0,23.8,23.8,0,0,0,7.2-4.89,20.29,20.29,0,0,0,4.63-7.46,28.64,28.64,0,0,0,0-18.53,20.29,20.29,0,0,0-4.63-7.46,23.8,23.8,0,0,0-7.2-4.89,24.74,24.74,0,0,0-18.53,0,23.8,23.8,0,0,0-7.2,4.89,20.29,20.29,0,0,0-4.63,7.46,26.9,26.9,0,0,0-1.55,9.26" transform="translate(-54.82 -41.84)"/></g><g class="cls-2"><path class="cls-4" d="M768,194.4a34.72,34.72,0,0,1-2.06,11.83,28.33,28.33,0,0,1-5.92,9.52,27.82,27.82,0,0,1-9.52,6.18,35.15,35.15,0,0,1-13.12,2.31A35.63,35.63,0,0,1,724,221.93a27.92,27.92,0,0,1-9.52-6.18,25.44,25.44,0,0,1-5.66-9.52,34.72,34.72,0,0,1-2-11.83V149.89h16v43.74a15.41,15.41,0,0,0,1,6.17,16,16,0,0,0,3.08,4.89A14.3,14.3,0,0,0,743.28,208a12,12,0,0,0,4.63-3.34A16,16,0,0,0,751,199.8a16.44,16.44,0,0,0,1-6.17V149.89h16V194.4Z" transform="translate(-54.82 -41.84)"/></g><g class="cls-2"><polygon class="cls-4" points="772.33 122.2 751.75 122.2 751.75 108.05 809.12 108.05 809.12 122.2 788.28 122.2 788.28 180.6 772.33 180.6 772.33 122.2"/></g><g class="cls-2"><path class="cls-4" d="M902.27,149.89H926.2A66.83,66.83,0,0,1,942.66,152a38.77,38.77,0,0,1,13.64,6.17,30.9,30.9,0,0,1,9.26,11.32c2.32,4.63,3.35,10.29,3.35,17,0,5.92-1,11.06-3.35,15.44a35.06,35.06,0,0,1-9,11.32,37.66,37.66,0,0,1-13.12,6.94A50.81,50.81,0,0,1,928,222.44H901.76V149.89Zm16,57.63h8.24a43.75,43.75,0,0,0,10.29-1,22.17,22.17,0,0,0,8.23-3.86,18.13,18.13,0,0,0,5.4-6.95,24.34,24.34,0,0,0,2.06-10.29,20.44,20.44,0,0,0-2.06-9.26,16.47,16.47,0,0,0-5.4-6.43,21,21,0,0,0-8-3.86,38.63,38.63,0,0,0-9.52-1.29H918v43Z" transform="translate(-54.82 -41.84)"/></g><g class="cls-2"><path class="cls-4" d="M1006.47,186.16a42.69,42.69,0,0,1,2.83-15.69,36,36,0,0,1,8.23-12.09,38.36,38.36,0,0,1,12.35-7.72,49.21,49.21,0,0,1,31.39,0,35.54,35.54,0,0,1,20.58,19.81,38.72,38.72,0,0,1,2.83,15.69,42.7,42.7,0,0,1-2.83,15.7,35.92,35.92,0,0,1-8.24,12.09,38.48,38.48,0,0,1-12.34,7.72,49.21,49.21,0,0,1-31.39,0,35.47,35.47,0,0,1-20.58-19.81,38.76,38.76,0,0,1-2.83-15.7m16.46,0a26.91,26.91,0,0,0,1.55,9.27,20.29,20.29,0,0,0,4.63,7.46,23.68,23.68,0,0,0,7.2,4.89,24.72,24.72,0,0,0,18.52,0,23.85,23.85,0,0,0,7.21-4.89,20.29,20.29,0,0,0,4.63-7.46,28.64,28.64,0,0,0,0-18.53,20.29,20.29,0,0,0-4.63-7.46,23.85,23.85,0,0,0-7.21-4.89,24.72,24.72,0,0,0-18.52,0,23.68,23.68,0,0,0-7.2,4.89,20.29,20.29,0,0,0-4.63,7.46,26.9,26.9,0,0,0-1.55,9.26" transform="translate(-54.82 -41.84)"/></g><g class="cls-2"><path class="cls-4" d="M1122,186.16a42.69,42.69,0,0,1,2.83-15.69,36,36,0,0,1,8.23-12.09,38.46,38.46,0,0,1,12.35-7.72,49.21,49.21,0,0,1,31.39,0,35.47,35.47,0,0,1,20.58,19.81,38.72,38.72,0,0,1,2.83,15.69,42.7,42.7,0,0,1-2.83,15.7,36,36,0,0,1-8.23,12.09,38.53,38.53,0,0,1-12.35,7.72,49.21,49.21,0,0,1-31.39,0,35.47,35.47,0,0,1-20.58-19.81,43.73,43.73,0,0,1-2.83-15.7m16.47,0a26.91,26.91,0,0,0,1.54,9.27,20.29,20.29,0,0,0,4.63,7.46,23.85,23.85,0,0,0,7.21,4.89,24.72,24.72,0,0,0,18.52,0,23.8,23.8,0,0,0,7.2-4.89,20.29,20.29,0,0,0,4.63-7.46,28.47,28.47,0,0,0,0-18.53,20.29,20.29,0,0,0-4.63-7.46,23.8,23.8,0,0,0-7.2-4.89,24.72,24.72,0,0,0-18.52,0,23.85,23.85,0,0,0-7.21,4.89,20.29,20.29,0,0,0-4.63,7.46,26.9,26.9,0,0,0-1.54,9.26" transform="translate(-54.82 -41.84)"/></g><g class="cls-2"><path class="cls-4" d="M1241.36,149.89h28a47.51,47.51,0,0,1,10.55,1,24.13,24.13,0,0,1,8.74,3.6,18.48,18.48,0,0,1,5.92,6.69,22.08,22.08,0,0,1,2.32,10.55c0,5.14-1.29,9.52-4.12,13.12a16.61,16.61,0,0,1-11.58,6.69l18.53,30.61h-19l-15.18-29.07h-8v29.07h-16V149.89Zm16,29.84h9.52a30.4,30.4,0,0,0,4.63-.25,12.23,12.23,0,0,0,4.37-1,9.73,9.73,0,0,0,3.34-2.32,7.58,7.58,0,0,0,1.29-4.63,7.37,7.37,0,0,0-1-4.37,13.65,13.65,0,0,0-2.83-2.58,15.44,15.44,0,0,0-4.11-1.28,26.27,26.27,0,0,0-4.38-.26h-10.55v16.72Z" transform="translate(-54.82 -41.84)"/></g><g class="cls-2"><path class="cls-4" d="M638.83,304a18.8,18.8,0,0,0-5.66-4.37,19.19,19.19,0,0,0-8-1.54,17.5,17.5,0,0,0-8.23,1.8,21.31,21.31,0,0,0-6.69,4.89,23.53,23.53,0,0,0-4.37,7.46,28.44,28.44,0,0,0,0,18.52,21.54,21.54,0,0,0,10.8,12.35,17.2,17.2,0,0,0,8,1.8,19,19,0,0,0,8.74-2.06,16.28,16.28,0,0,0,6.18-5.66l13.38,10a27.63,27.63,0,0,1-11.58,9.52,35.84,35.84,0,0,1-14.67,3.08A44.66,44.66,0,0,1,611,357.25a35.47,35.47,0,0,1-20.58-19.81,38.72,38.72,0,0,1-2.83-15.69,42.7,42.7,0,0,1,2.83-15.7A36.14,36.14,0,0,1,598.69,294,38.53,38.53,0,0,1,611,286.24a44.66,44.66,0,0,1,15.69-2.57,60.81,60.81,0,0,1,6.44.51A26.28,26.28,0,0,1,639.6,286a24.32,24.32,0,0,1,6.17,3.34,20.62,20.62,0,0,1,5.41,5.15Z" transform="translate(-54.82 -41.84)"/></g><g class="cls-2"><path class="cls-4" d="M688,321.49a42.44,42.44,0,0,1,2.83-15.69A35.94,35.94,0,0,1,699,293.7,38.5,38.5,0,0,1,711.38,286a43.47,43.47,0,0,1,15.69-2.58A44.4,44.4,0,0,1,742.76,286a35.44,35.44,0,0,1,20.59,19.81,38.89,38.89,0,0,1,2.83,15.69,42.65,42.65,0,0,1-2.83,15.69,36.07,36.07,0,0,1-8.24,12.09A38.36,38.36,0,0,1,742.76,357a49,49,0,0,1-31.38,0,35.47,35.47,0,0,1-20.58-19.81A43.46,43.46,0,0,1,688,321.49m16.72,0a26.9,26.9,0,0,0,1.54,9.26,20.29,20.29,0,0,0,4.63,7.46,23.85,23.85,0,0,0,7.21,4.89,24.72,24.72,0,0,0,18.52,0,23.8,23.8,0,0,0,7.2-4.89,20.29,20.29,0,0,0,4.63-7.46,28.44,28.44,0,0,0,0-18.52,20.21,20.21,0,0,0-4.63-7.46,23.62,23.62,0,0,0-7.2-4.89,24.72,24.72,0,0,0-18.52,0,23.67,23.67,0,0,0-7.21,4.89,20.21,20.21,0,0,0-4.63,7.46,26.86,26.86,0,0,0-1.54,9.26" transform="translate(-54.82 -41.84)"/></g><g class="cls-2"><polygon class="cls-4" points="753.29 243.38 769.24 243.38 769.24 301.01 798.83 301.01 798.83 315.93 753.29 315.93 753.29 243.38"/></g><g class="cls-2"><polygon class="cls-4" points="838.45 243.38 854.4 243.38 854.4 301.01 883.99 301.01 883.99 315.93 838.45 315.93 838.45 243.38"/></g><g class="cls-2"><polygon class="cls-4" points="923.86 243.38 973 243.38 973 258.04 939.81 258.04 939.81 271.68 971.2 271.68 971.2 286.34 939.81 286.34 939.81 301.01 974.8 301.01 974.8 315.93 923.86 315.93 923.86 243.38"/></g><g class="cls-2"><path class="cls-4" d="M1120.18,304a18.55,18.55,0,0,0-5.66-4.37,19.14,19.14,0,0,0-8-1.54,17.57,17.57,0,0,0-8.24,1.8,21.31,21.31,0,0,0-6.69,4.89,23.72,23.72,0,0,0-4.37,7.46,28.61,28.61,0,0,0,0,18.52,21.51,21.51,0,0,0,10.81,12.35,17.16,17.16,0,0,0,8,1.8,19,19,0,0,0,8.75-2.06,16.25,16.25,0,0,0,6.17-5.66l13.38,10a27.63,27.63,0,0,1-11.58,9.52,35.83,35.83,0,0,1-14.66,3.08,44.63,44.63,0,0,1-15.69-2.57,35.52,35.52,0,0,1-20.59-19.81,38.89,38.89,0,0,1-2.83-15.69,42.7,42.7,0,0,1,2.83-15.7,36,36,0,0,1,8.24-12.09,38.42,38.42,0,0,1,12.35-7.72,44.63,44.63,0,0,1,15.69-2.57,60.43,60.43,0,0,1,6.43.51A26.15,26.15,0,0,1,1121,286a24.37,24.37,0,0,1,6.18,3.34,20.43,20.43,0,0,1,5.4,5.15Z" transform="translate(-54.82 -41.84)"/></g><g class="cls-2"><polygon class="cls-4" points="1132.51 257.53 1111.93 257.53 1111.93 243.38 1169.3 243.38 1169.3 257.53 1148.46 257.53 1148.46 315.93 1132.51 315.93 1132.51 257.53"/></g><g class="cls-2"><rect class="cls-4" x="1207.37" y="243.38" width="15.95" height="72.55"/></g><g class="cls-2"><polygon class="cls-4" points="1261.14 243.38 1279.41 243.38 1297.16 290.97 1297.42 290.97 1315.69 243.38 1332.67 243.38 1302.82 315.93 1289.96 315.93 1261.14 243.38"/></g><g class="cls-2"><polygon class="cls-4" points="1371.26 243.38 1420.65 243.38 1420.65 258.04 1387.21 258.04 1387.21 271.68 1418.6 271.68 1418.6 286.34 1387.21 286.34 1387.21 301.01 1422.45 301.01 1422.45 315.93 1371.26 315.93 1371.26 243.38"/></g></svg>