<svg xmlns="http://www.w3.org/2000/svg" viewBox="0 0 925.62 912.06"><defs><style>.cls-1{fill:#a6b49b;}</style></defs><title>outdoorCollective</title><g id="Layer_2" data-name="Layer 2"><path class="cls-1" d="M495.69,17.62V83.8C686.43,100.75,836,260.94,836,456.14a372.26,372.26,0,0,1-87,239.7L460.86,407.65,174,694.48v0A372.29,372.29,0,0,1,88.2,456.14c0-194.08,147.87-353.59,337.12-372.07V17.89c-225.69,18.7-403,207.73-403,438.25s177.29,419.55,403,438.24V828.2a373.43,373.43,0,0,1-43.8-6.92c2.38-.72,4.81-1.58,7.32-2.57l72.42-72.42,69,77.47q-17,3.15-34.57,4.71v66.18c227.17-17.16,406.22-206.93,406.22-438.51S722.86,34.78,495.69,17.62ZM609.34,799.87,460.43,651l-147.9,147.9,0,0a373.33,373.33,0,0,1-87.29-53.44l.19,0L462.07,508.79,698.81,745.53A372.92,372.92,0,0,1,609.34,799.87Z"/></g></svg>