<svg xmlns="http://www.w3.org/2000/svg" viewBox="0 0 282.95 258.71"><defs><style>.cls-1{fill:#9bb897;stroke:#9bb897;stroke-miterlimit:10;}</style></defs><title>outdoorCollective</title><g id="Layer_2" data-name="Layer 2"><path class="cls-1" d="M152.94,13.72V33.08a96.59,96.59,0,0,1,66.15,157L143.94,114.9l-12.88,12.88L112.15,146.7,99.36,159.48,68.89,190A96.59,96.59,0,0,1,134.94,33.1V13.68A114.28,114.28,0,0,0,92.65,229.83a112.25,112.25,0,0,0,18.45,7.3,113.68,113.68,0,0,0,23.84,4.39v-16.1a96.62,96.62,0,0,1-10.56-1.57l10.56-10.57,9.11-9.11,19.67,19.67a95.87,95.87,0,0,1-10.78,1.6v16a113.61,113.61,0,0,0,23.9-4.52,112.4,112.4,0,0,0,18.26-7.31A114.27,114.27,0,0,0,152.94,13.72Zm30.14,203.91L144,178.52l-9,9-30,30.05A96.07,96.07,0,0,1,81.67,203l30.61-30.61,12.79-12.78,9.87-9.88,9-9,62.36,62.36A96.47,96.47,0,0,1,183.08,217.63Z"/></g></svg>