<svg xmlns="http://www.w3.org/2000/svg" viewBox="0 0 3208 2242"><defs><style>.cls-1{fill:none;}.cls-2{fill:#a6b49b;}.cls-3{font-size:120px;fill:#7d8776;font-family:Arial-Black, Arial Black;}</style></defs><title>outdoorCollective</title><g id="Layer_2" data-name="Layer 2"><path class="cls-1" d="M1861.1,1374l-258.16-258.15L1345.87,1372.9c-.92-.77-1.82-1.54-2.74-2.3a399.71,399.71,0,0,0,100,63.39l159.27-159.27,160.45,160.46A399.55,399.55,0,0,0,1866.23,1370C1864.54,1371.34,1862.85,1372.68,1861.1,1374Z"/><path class="cls-2" d="M1641.87,676.89v76.29c346.41,45,426.37,411.33,256.16,617.4,0-.11.11-.16.16-.27l-296.81-296.76-292.87,292.88c-166.44-206.72-85.46-569.25,259-613.89V676.19c-568.76,78.29-526.55,837.64,0,888.92v-59.9c-14.67-1.89-28.85-4.42-42.59-7.5,1-.32,1.88-.64,2.8-1l76.45-76.45,78.56,78.5c-13.21,2.91-26.8,5.28-40.87,7.11v60C2168.42,1514.54,2210.58,755.12,1641.87,676.89Zm114.25,798.61-152.85-152.85-151.51,151.56h0a376.51,376.51,0,0,1-94.09-57.64c1.24.48,2.48,1,3.78,1.45l241.49-241.49,244.4,244.41A376,376,0,0,1,1756.12,1475.5Z"/><text class="cls-3" transform="matrix(0.05, -1, 1, 0.05, 1139.88, 1113.21)">O</text><text class="cls-3" transform="matrix(0.26, -0.97, 0.97, 0.26, 1144.59, 1017.22)">U</text><text class="cls-3" transform="matrix(0.44, -0.9, 0.9, 0.44, 1169.56, 924.26)">T</text><text class="cls-3" transform="matrix(0.6, -0.8, 0.8, 0.6, 1205.18, 849.17)">D</text><text class="cls-3" transform="translate(1257.99 776.81) rotate(-41.92)">O</text><text class="cls-3" transform="matrix(0.87, -0.5, 0.5, 0.87, 1329.23, 712.31)">O</text><text class="cls-3" transform="matrix(0.95, -0.32, 0.32, 0.95, 1412.4, 664.02)">R</text><text class="cls-3" transform="matrix(0.98, -0.19, 0.19, 0.98, 1498.63, 636.55)"> </text><text class="cls-3" transform="matrix(1, -0.05, 0.05, 1, 1535.01, 627.53)">C</text><text class="cls-3" transform="matrix(0.99, 0.15, -0.15, 0.99, 1624.43, 622.35)">O</text><text class="cls-3" transform="matrix(0.94, 0.33, -0.33, 0.94, 1719.61, 637.48)">L</text><text class="cls-3" transform="translate(1792.23 662.53) rotate(28.7)">L</text><text class="cls-3" transform="matrix(0.78, 0.62, -0.62, 0.78, 1859.79, 698.85)">E</text><text class="cls-3" transform="translate(1925.12 750.28) rotate(49.36)">C</text><text class="cls-3" transform="translate(1983.6 818.37) rotate(59.99)">T</text><text class="cls-3" transform="matrix(0.38, 0.93, -0.93, 0.38, 2024.51, 891.56)">I</text><text class="cls-3" transform="translate(2042.85 931.59) rotate(76.13)">V</text><text class="cls-3" transform="matrix(0.06, 1, -1, 0.06, 2064.4, 1018.7)">E</text></g></svg>