<svg xmlns="http://www.w3.org/2000/svg" viewBox="0 0 1739.7 609.91"><defs><style>.cls-1{fill:#a6b49b;}.cls-2{font-size:135.47px;fill:#31392f;font-family:Arial-Black, Arial Black;}</style></defs><title>outdoorCollective</title><g id="Layer_2" data-name="Layer 2"><path class="cls-1" d="M298.3,18.08V61.9C173,74.14,75.1,179.74,75.1,308.24S173,542.34,298.3,554.58V598.4C148.88,586,31.5,460.86,31.5,308.24S148.88,30.46,298.3,18.08Z"/><path class="cls-1" d="M613.85,308.24c0,153.32-118.55,279-269,290.33V554.76c126.28-11.22,225.31-117.28,225.31-246.52s-99-235.3-225.31-246.52V17.91C495.3,29.27,613.85,154.91,613.85,308.24Z"/><path class="cls-1" d="M131.93,466l189.9-189.9L513,467.26c-4,20.47-12.74,34.65-33.08,33.09L322.63,343.1,166,499.76C145.09,503.31,135,490.2,131.93,466Z"/><path class="cls-1" d="M223.63,535.15l97.92-97.92,99,99c-9.84,18.63-29,21-52.79,15.39L322.1,500.35l-47.94,47.94C250.42,557.69,235.82,548.83,223.63,535.15Z"/><text class="cls-2" transform="translate(762.46 276.14)">OUTDOOR <tspan x="0" y="162.57">COLLECTIVE</tspan></text></g></svg>